<?xml version="1.0" encoding="utf-8"?><svg xmlns="http://www.w3.org/2000/svg" xmlns:xlink="http://www.w3.org/1999/xlink"><symbol viewBox="0 0 24 24" id="checkout" xmlns="http://www.w3.org/2000/svg"><g clip-path="url(#aa)"><path d="M12 20a8 8 0 1 0 0-16.001A8 8 0 0 0 12 20Zm0 2C6.477 22 2 17.523 2 12S6.477 2 12 2s10 4.477 10 10-4.477 10-10 10Zm0-8a2 2 0 1 1 0-4 2 2 0 0 1 0 4Z"/></g><defs><clipPath id="aa"><path d="M0 0h24v24H0z"/></clipPath></defs></symbol><symbol viewBox="0 0 16 16" id="clock" xmlns="http://www.w3.org/2000/svg"><g clip-path="url(#ba)"><path d="M8 0C3.589 0 0 3.589 0 8s3.589 8 8 8 8-3.589 8-8-3.589-8-8-8Zm3.805 12.138a.665.665 0 0 1-.943 0L7.53 8.805a.664.664 0 0 1-.196-.472V4a.666.666 0 1 1 1.334 0v4.057l3.138 3.138c.26.261.26.682 0 .943Z"/></g><defs><clipPath id="ba"><path d="M0 0h16v16H0z"/></clipPath></defs></symbol><symbol viewBox="0 0 24 24" id="close" xmlns="http://www.w3.org/2000/svg"><g clip-path="url(#ca)"><path d="m12 10.586 4.95-4.95 1.414 1.414-4.95 4.95 4.95 4.95-1.414 1.414-4.95-4.95-4.95 4.95-1.414-1.414 4.95-4.95-4.95-4.95L7.05 5.636l4.95 4.95Z"/></g><defs><clipPath id="ca"><path d="M0 0h24v24H0z"/></clipPath></defs></symbol><symbol viewBox="0 0 24 24" id="email" xmlns="http://www.w3.org/2000/svg"><path fill-rule="evenodd" clip-rule="evenodd" d="M1 8a5 5 0 0 1 5-5h12a5 5 0 0 1 5 5v8a5 5 0 0 1-5 5H6a5 5 0 0 1-5-5V8Zm5-3.4h12c1.1 0 2.079.523 2.7 1.333l-5.718 4.003a5.2 5.2 0 0 1-5.964 0L3.3 5.933A3.394 3.394 0 0 1 6 4.6ZM2.648 7.43A3.423 3.423 0 0 0 2.6 8v8A3.4 3.4 0 0 0 6 19.4h12a3.4 3.4 0 0 0 3.4-3.4V8c0-.194-.016-.385-.048-.57L15.9 11.247a6.8 6.8 0 0 1-7.799 0L2.648 7.43Z"/></symbol><symbol viewBox="0 0 20 20" id="emotion-happy" xmlns="http://www.w3.org/2000/svg"><g clip-path="url(#ea)"><path d="M10 18.333a8.333 8.333 0 1 1 0-16.666 8.333 8.333 0 1 1 0 16.666Zm0-1.666a6.667 6.667 0 1 0 0-13.334 6.667 6.667 0 0 0 0 13.334Zm-4.167-5.834H7.5a2.5 2.5 0 1 0 5 0h1.667a4.167 4.167 0 1 1-8.334 0Zm.834-1.666a1.25 1.25 0 1 1 0-2.5 1.25 1.25 0 0 1 0 2.5Zm6.666 0a1.25 1.25 0 1 1 0-2.5 1.25 1.25 0 0 1 0 2.5Z"/></g><defs><clipPath id="ea"><path d="M0 0h20v20H0z"/></clipPath></defs></symbol><symbol viewBox="0 0 23 22" id="fire" xmlns="http://www.w3.org/2000/svg"><path d="M13.417 1c-3.978 2.456-3.5 9.375-3.5 9.375s-1.75-.625-1.75-3.437c-2.088 1.297-3.5 3.79-3.5 6.562 0 4.142 3.134 7.5 7 7.5s7-3.358 7-7.5c0-6.094-5.25-7.344-5.25-12.5Zm-1.135 17.416c-1.407.375-2.832-.542-3.182-2.049-.351-1.507.505-3.033 1.912-3.41 3.396-.906 3.821-2.953 3.821-2.953s1.694 7.278-2.551 8.412Z"/></symbol><symbol viewBox="0 0 16 16" id="menu" xmlns="http://www.w3.org/2000/svg"><g clip-path="url(#ga)"><path d="M10.667 12v1.333H3.333V12h7.334ZM14 7.333v1.334H2V7.333h12Zm-1.333-4.666V4H5.333V2.667h7.334Z"/></g><defs><clipPath id="ga"><path d="M0 0h16v16H0z"/></clipPath></defs></symbol><symbol viewBox="0 0 24 24" id="minus" xmlns="http://www.w3.org/2000/svg"><g clip-path="url(#ha)"><path d="M5 11h14v2H5v-2Z"/></g><defs><clipPath id="ha"><path d="M0 0h24v24H0z"/></clipPath></defs></symbol><symbol viewBox="0 0 20 20" id="phone" xmlns="http://www.w3.org/2000/svg"><g clip-path="url(#ia)"><path d="M17.5 13.683v2.947a.833.833 0 0 1-.775.832c-.364.025-.662.038-.892.038C8.47 17.5 2.5 11.53 2.5 4.167c0-.23.013-.528.038-.892A.833.833 0 0 1 3.37 2.5h2.947a.417.417 0 0 1 .415.375c.019.192.036.344.053.46a11.58 11.58 0 0 0 1.007 3.334.38.38 0 0 1-.123.473L5.871 8.427a10.872 10.872 0 0 0 5.703 5.703l1.284-1.795a.385.385 0 0 1 .477-.124c1.054.5 2.178.84 3.333 1.004.116.017.269.035.459.053a.417.417 0 0 1 .374.415H17.5Z"/></g><defs><clipPath id="ia"><path d="M0 0h20v20H0z"/></clipPath></defs></symbol><symbol viewBox="0 0 16 16" id="plus" xmlns="http://www.w3.org/2000/svg"><g clip-path="url(#ja)"><path d="M7.333 7.333v-4h1.334v4h4v1.334h-4v4H7.333v-4h-4V7.333h4Z"/></g><defs><clipPath id="ja"><path d="M0 0h16v16H0z"/></clipPath></defs></symbol><symbol viewBox="0 0 20 20" id="route" xmlns="http://www.w3.org/2000/svg"><g clip-path="url(#ka)"><path d="M3.333 12.5V7.083a3.75 3.75 0 0 1 7.5 0v5.834a2.083 2.083 0 0 0 4.167 0V7.358a2.501 2.501 0 1 1 1.667 0v5.559a3.75 3.75 0 1 1-7.5 0V7.083a2.083 2.083 0 0 0-4.167 0V12.5h2.5l-3.333 4.167L.833 12.5h2.5Zm12.5-6.667a.833.833 0 1 0 0-1.667.833.833 0 0 0 0 1.667Z"/></g><defs><clipPath id="ka"><path d="M0 0h20v20H0z"/></clipPath></defs></symbol><symbol viewBox="0 0 17 16" id="weight" xmlns="http://www.w3.org/2000/svg"><g clip-path="url(#la)"><path d="M15.775 1.525c-.41-.477-.955-.75-1.57-.682h-11.8C1.179.843.156 2.003.36 3.231l1.637 10.23c.136 1.024 1.023 1.706 2.046 1.706h8.594c1.023 0 1.91-.75 2.046-1.705L16.32 3.23a2.246 2.246 0 0 0-.545-1.706ZM9.772 9.71c-.204-.204-.409-.34-.682-.409l.546-2.728L8.272 6.3l-.614 2.933c-.273.068-.546.273-.819.477L3.43 6.368a6.793 6.793 0 0 1 9.617 0L9.772 9.71Z"/></g><defs><clipPath id="la"><path transform="translate(.333)" d="M0 0h16v16H0z"/></clipPath></defs></symbol></svg>